<svg id="Group_1503" data-name="Group 1503" xmlns="http://www.w3.org/2000/svg" width="94.706" height="94.707" viewBox="0 0 94.706 94.707">
  <path id="Path_6874" data-name="Path 6874" d="M355.625,414.863a47.354,47.354,0,1,1,33.483-13.87A47.043,47.043,0,0,1,355.625,414.863Zm0-93.215a45.861,45.861,0,1,0,32.429,13.432A45.564,45.564,0,0,0,355.625,321.648Z" transform="translate(-308.272 -320.156)" fill="#e9e9eb"/>
  <g id="Group_1487" data-name="Group 1487" transform="translate(20.738 5.925)">
    <g id="best_movies" data-name="best movies">
      <path id="Path_6875" data-name="Path 6875" d="M346.177,345.1l.117.149a1.041,1.041,0,0,1,.233,1.173,1.072,1.072,0,0,1,1.188.514l.266.34a1.127,1.127,0,0,1-.224,1.769l-1.033.806-3.261-4.179.991-.773A1.067,1.067,0,0,1,346.177,345.1Zm-1.592.656.862,1.1.256-.2c.245-.191.31-.415.05-.749l-.182-.233c-.233-.3-.437-.35-.67-.169Zm1.328,1.7,1,1.284.376-.293c.221-.173.262-.367.019-.678l-.285-.364c-.3-.388-.521-.41-.82-.177Z" transform="translate(-343.463 -336.102)" fill="#e9e9eb"/>
      <path id="Path_6876" data-name="Path 6876" d="M354.111,340.983l1-.56.371.659-1,.561.761,1.353,1.254-.705.371.66-1.98,1.114-2.6-4.62,1.979-1.114.372.66-1.254.705Z" transform="translate(-347.088 -333.546)" fill="#e9e9eb"/>
      <path id="Path_6877" data-name="Path 6877" d="M362.667,334.741a1.154,1.154,0,0,1,1.622.807l.06.156-.736.282-.079-.205c-.135-.354-.328-.434-.576-.34s-.338.283-.2.638c.39,1.019,1.985.628,2.526,2.044a1.246,1.246,0,1,1-2.321.888l-.116-.3.736-.281.135.354c.136.354.34.421.588.326s.355-.282.22-.635c-.39-1.019-1.985-.628-2.526-2.044A1.154,1.154,0,0,1,362.667,334.741Z" transform="translate(-351.02 -332.027)" fill="#e9e9eb"/>
      <path id="Path_6878" data-name="Path 6878" d="M370.917,332.056l2.513-.559.164.739-.85.189.987,4.435-.813.181-.987-4.435-.85.19Z" transform="translate(-354.738 -330.739)" fill="#e9e9eb"/>
      <path id="Path_6879" data-name="Path 6879" d="M390.075,334.052l.734-3.738,1.158.051-.233,5.3-.787-.034.167-3.8-.743,3.776-.787-.035-.456-3.775-.165,3.748-.727-.032.233-5.3,1.158.051Z" transform="translate(-361.851 -330.211)" fill="#e9e9eb"/>
      <path id="Path_6880" data-name="Path 6880" d="M400.221,332.734a1.267,1.267,0,1,1,2.475.526l-.573,2.7a1.267,1.267,0,1,1-2.475-.526Zm.231,2.922c-.078.371.055.546.314.6s.452-.051.531-.421l.595-2.8c.079-.37-.054-.546-.314-.6s-.453.051-.531.421Z" transform="translate(-366.519 -330.803)" fill="#e9e9eb"/>
      <path id="Path_6881" data-name="Path 6881" d="M410.281,338.55l2.13-3.82.715.272-2.647,4.67-1.162-.441,1.117-5.251.787.3Z" transform="translate(-370.509 -331.759)" fill="#e9e9eb"/>
      <path id="Path_6882" data-name="Path 6882" d="M419.526,338.353l.734.4-2.518,4.671-.734-.4Z" transform="translate(-373.668 -333.555)" fill="#e9e9eb"/>
      <path id="Path_6883" data-name="Path 6883" d="M425.274,344.7l.93.666-.441.616-.93-.667-.905,1.263,1.17.839-.441.616-1.847-1.324,3.09-4.312,1.848,1.325-.442.616-1.17-.839Z" transform="translate(-376.049 -335.214)" fill="#e9e9eb"/>
      <path id="Path_6884" data-name="Path 6884" d="M434.63,349.748a1.155,1.155,0,0,1-.045,1.813l-.116.12-.567-.548.153-.158c.264-.272.255-.481.064-.666s-.4-.186-.664.086c-.758.785.271,2.065-.783,3.155a1.246,1.246,0,1,1-1.787-1.728l.227-.235.566.548-.263.272c-.263.273-.238.486-.048.671s.405.2.669-.07c.759-.784-.271-2.064.784-3.155A1.155,1.155,0,0,1,434.63,349.748Z" transform="translate(-379.178 -338.075)" fill="#e9e9eb"/>
    </g>
    <g id="best_music" data-name="best music" transform="translate(2.565 69.597)">
      <path id="Path_6885" data-name="Path 6885" d="M352.044,453.3l-.1.153a1.015,1.015,0,0,1-1.014.577,1.046,1.046,0,0,1-.109,1.258l-.233.351a1.1,1.1,0,0,1-1.706.338l-1.064-.708,2.864-4.305,1.021.68A1.041,1.041,0,0,1,352.044,453.3Zm-2.264.482-.88,1.322.388.258c.227.151.42.128.633-.191l.249-.375c.266-.4.219-.609-.088-.813Zm1.166-1.753-.757,1.138.265.176c.252.168.48.159.709-.185l.16-.24c.2-.308.19-.513-.05-.672Z" transform="translate(-347.815 -449.401)" fill="#e9e9eb"/>
      <path id="Path_6886" data-name="Path 6886" d="M359,458.144l1.01.474-.313.669-1.01-.474-.643,1.371,1.271.6-.314.669L357,460.508l2.2-4.683,2.007.942-.314.669-1.272-.6Z" transform="translate(-351.586 -451.397)" fill="#e9e9eb"/>
      <path id="Path_6887" data-name="Path 6887" d="M369.063,459.639a1.126,1.126,0,0,1,.771,1.591l-.047.156-.736-.222.062-.205c.107-.354.005-.531-.242-.606s-.43.018-.536.371c-.307,1.019,1.157,1.668.731,3.084a1.215,1.215,0,1,1-2.321-.7l.091-.3.736.222-.107.354c-.106.354.011.528.259.6s.441-.006.548-.36c.307-1.019-1.157-1.668-.731-3.084A1.126,1.126,0,0,1,369.063,459.639Z" transform="translate(-355.554 -452.935)" fill="#e9e9eb"/>
      <path id="Path_6888" data-name="Path 6888" d="M377.142,461.395l2.486.37-.109.731-.84-.125-.653,4.386-.8-.12.652-4.386-.84-.125Z" transform="translate(-359.815 -453.685)" fill="#e9e9eb"/>
      <path id="Path_6889" data-name="Path 6889" d="M394.315,465.552l.157-3.711,1.124-.121.554,5.142-.764.082-.4-3.688L394.828,467l-.764.083-.994-3.572.392,3.637-.705.076-.554-5.143,1.124-.121Z" transform="translate(-366.044 -453.818)" fill="#e9e9eb"/>
      <path id="Path_6890" data-name="Path 6890" d="M404.03,459.951l1.083,3.841c.1.355.293.44.542.369s.369-.242.269-.6l-1.083-3.841.74-.209,1.069,3.791a1.215,1.215,0,1,1-2.333.658l-1.069-3.791Z" transform="translate(-370.58 -452.912)" fill="#e9e9eb"/>
      <path id="Path_6891" data-name="Path 6891" d="M413.261,456.746a1.126,1.126,0,0,1,1.627.692l.067.148-.7.317-.088-.2c-.153-.337-.345-.4-.581-.3s-.312.3-.16.632c.44.97,1.969.5,2.579,1.843a1.216,1.216,0,1,1-2.209,1l-.131-.289.7-.317.153.337c.153.336.355.391.591.285s.329-.3.177-.632c-.439-.969-1.969-.5-2.579-1.843A1.126,1.126,0,0,1,413.261,456.746Z" transform="translate(-374.396 -451.719)" fill="#e9e9eb"/>
      <path id="Path_6892" data-name="Path 6892" d="M419.978,453.421l.694-.424,2.7,4.412-.694.424Z" transform="translate(-377.452 -450.236)" fill="#e9e9eb"/>
      <path id="Path_6893" data-name="Path 6893" d="M429.491,450.446l.429.537a1.215,1.215,0,1,1-1.893,1.513l-1.68-2.1a1.215,1.215,0,1,1,1.893-1.513l.314.393-.6.48-.346-.433c-.23-.289-.446-.3-.648-.136s-.242.373-.011.662l1.744,2.182c.23.288.441.291.642.129s.246-.367.016-.655l-.461-.577Z" transform="translate(-379.919 -448.311)" fill="#e9e9eb"/>
    </g>
  </g>
  <g id="Group_1488" data-name="Group 1488" transform="translate(7.88 35.372)">
    <path id="Path_6894" data-name="Path 6894" d="M323.887,404.131l-.1-.255c-.065-.166-.165-.41-.276-.724-.229-.628-.531-1.535-.817-2.647-.144-.556-.288-1.161-.412-1.809s-.247-1.331-.336-2.045-.176-1.453-.221-2.207-.073-1.52-.078-2.291.031-1.536.078-2.288.13-1.494.221-2.208.211-1.4.338-2.043.267-1.254.411-1.81c.286-1.113.589-2.02.817-2.648.112-.315.212-.557.276-.724l.1-.255s-.088.372-.232,1.021-.338,1.579-.533,2.7c-.1.559-.187,1.168-.277,1.809s-.161,1.322-.233,2.028c-.034.352-.062.71-.087,1.073l-.065,1.1c-.038.743-.054,1.49-.051,2.249s.012,1.506.051,2.246.081,1.47.151,2.173.143,1.383.23,2.027.182,1.25.278,1.81c.2,1.118.389,2.047.535,2.7S323.887,404.131,323.887,404.131Z" transform="translate(-321.644 -380.179)" fill="#e9e9eb"/>
    <path id="Path_6895" data-name="Path 6895" d="M451.8,380.179l.1.255c.064.167.167.408.276.724s.247.7.387,1.143c.068.223.14.46.215.71s.141.517.216.795c.14.556.289,1.162.41,1.809s.246,1.332.338,2.045.173,1.453.221,2.207.071,1.522.078,2.289-.032,1.536-.078,2.289-.128,1.493-.22,2.207-.207,1.4-.337,2.044-.27,1.253-.411,1.809c-.074.277-.144.543-.215.794l-.216.711c-.14.444-.272.828-.387,1.142s-.213.557-.276.724l-.1.255.231-1.022c.075-.324.153-.72.25-1.172s.185-.966.285-1.524.189-1.167.276-1.81.16-1.324.232-2.027.107-1.434.153-2.173.051-1.489.051-2.248-.014-1.507-.051-2.248-.081-1.47-.151-2.173-.14-1.384-.232-2.027-.184-1.25-.276-1.81-.2-1.071-.285-1.525-.176-.848-.25-1.172Z" transform="translate(-375.099 -380.179)" fill="#e9e9eb"/>
  </g>
  <g id="Group_1491" data-name="Group 1491" transform="translate(43.334 21.487)">
    <g id="Group_1490" data-name="Group 1490">
      <g id="Group_1489" data-name="Group 1489">
        <path id="Path_6896" data-name="Path 6896" d="M381.806,367.249l6-3.4-1.851-1.274Z" transform="translate(-381.806 -359.063)" fill="#ff0"/>
        <path id="Path_6897" data-name="Path 6897" d="M390.781,356.618l-6,3.4,1.851,1.274Z" transform="translate(-383.029 -356.618)" fill="#ff0"/>
      </g>
    </g>
  </g>
  <g id="Group_1494" data-name="Group 1494" transform="translate(43.334 60.587)">
    <g id="Group_1493" data-name="Group 1493">
      <g id="Group_1492" data-name="Group 1492">
        <path id="Path_6898" data-name="Path 6898" d="M381.806,433.6l6-3.4-1.851-1.274Z" transform="translate(-381.806 -425.41)" fill="#ff0"/>
        <path id="Path_6899" data-name="Path 6899" d="M390.781,422.966l-6,3.4,1.851,1.274Z" transform="translate(-383.029 -422.966)" fill="#ff0"/>
      </g>
    </g>
  </g>
  <g id="Group_1495" data-name="Group 1495" transform="translate(14.938 14.938)">
    <path id="Path_6900" data-name="Path 6900" d="M366.035,410.335a32.416,32.416,0,1,1,22.921-9.494A32.2,32.2,0,0,1,366.035,410.335Zm0-64.084A31.669,31.669,0,1,0,397.7,377.92,31.706,31.706,0,0,0,366.035,346.25Z" transform="translate(-333.62 -345.505)" fill="#e9e9eb"/>
    <path id="Path_6901" data-name="Path 6901" d="M366.155,410.283,333.912,378.04,366.155,345.8,398.4,378.04ZM334.966,378.04l31.189,31.189,31.189-31.189-31.189-31.189Z" transform="translate(-333.74 -345.625)" fill="#e9e9eb"/>
  </g>
  <path id="Path_6974" data-name="Path 6974" d="M347.424,400.774l2.09-.074c1.33-.042,3.23-.1,5.509-.14,1.14-.023,2.375-.048,3.681-.064s2.683-.041,4.108-.05,2.9-.031,4.394-.032l4.536-.013,4.536.012c1.5,0,2.968.022,4.393.032s2.8.031,4.109.05,2.541.041,3.681.064c2.28.044,4.18.1,5.51.14l2.09.074-2.09.074c-1.33.042-3.23.1-5.51.14-1.14.024-2.375.048-3.681.064s-2.684.041-4.109.05-2.9.031-4.393.032l-4.536.012-4.536-.013c-1.5,0-2.969-.022-4.394-.032s-2.8-.032-4.108-.05-2.541-.041-3.681-.064c-2.279-.044-4.179-.1-5.509-.139Z" transform="translate(-324.351 -353.112)" fill="#e9e9eb"/>
  <g id="Roku" transform="translate(32.934 33.155)">
    <path id="Path_6975" data-name="Path 6975" d="M368.711,379.368a1.477,1.477,0,0,0-1.469-1.483h-.728v2.953h.728a1.474,1.474,0,0,0,1.469-1.47m3.314,5.886h-2.674l-2.123-2.946h-.714v2.94h-2.357v-8.832h3.376a3.288,3.288,0,0,1,3.535,2.952,2.868,2.868,0,0,1-1.536,2.423l2.493,3.463" transform="translate(-364.157 -376.416)" fill="#fff"/>
    <path id="Path_6976" data-name="Path 6976" d="M379.5,381.133c-.622,0-1.152.846-1.152,1.893s.53,1.895,1.152,1.895,1.165-.847,1.165-1.895-.529-1.893-1.165-1.893m3.627,1.893a3.621,3.621,0,1,1-3.627-3.6,3.61,3.61,0,0,1,3.627,3.6m5.53-3.455-2.714,2.714v-2.723h-2.357v6.921h2.357v-2.808l2.834,2.808h2.965l-3.6-3.6,2.983-2.982v4.107a2.543,2.543,0,0,0,2.885,2.622,3.273,3.273,0,0,0,2.317-1.059l1.06.913h.5v-6.912h-2.357v4.475a1.319,1.319,0,0,1-1.206.754c-.579,0-.846-.344-.846-1.443v-3.787Z" transform="translate(-368.973 -377.652)" fill="#fff"/>
  </g>
  <g id="flashback" transform="translate(28.379 53.09)">
    <path id="Path_6977" data-name="Path 6977" d="M357.729,411.463v.712h1.61v1.057h-1.61v1.33h-1.3v-4.156h3.136v1.057Z" transform="translate(-356.428 -410.311)" fill="#fff"/>
    <path id="Path_6978" data-name="Path 6978" d="M362.863,410.406h1.3v3.07h1.742v1.086h-3.043Z" transform="translate(-359.071 -410.311)" fill="#fff"/>
    <path id="Path_6979" data-name="Path 6979" d="M371.477,413.838h-1.467l-.259.724h-1.323l1.687-4.156h1.279l1.687,4.156h-1.345Zm-.358-1.01-.375-1.045-.375,1.045Z" transform="translate(-361.357 -410.311)" fill="#fff"/>
    <path id="Path_6980" data-name="Path 6980" d="M377.426,414.476a2.4,2.4,0,0,1-.747-.312l.419-1.021a2.548,2.548,0,0,0,.618.276,2.242,2.242,0,0,0,.656.1.95.95,0,0,0,.386-.057.18.18,0,0,0,.116-.169.212.212,0,0,0-.151-.2,3.134,3.134,0,0,0-.5-.142,5.407,5.407,0,0,1-.744-.217,1.272,1.272,0,0,1-.519-.38,1.084,1.084,0,0,1-.22-.715,1.3,1.3,0,0,1,.2-.712,1.372,1.372,0,0,1,.609-.505,2.373,2.373,0,0,1,.984-.184,3.327,3.327,0,0,1,.78.092,2.342,2.342,0,0,1,.675.27l-.391,1.016a2.254,2.254,0,0,0-1.075-.309q-.5,0-.5.261a.2.2,0,0,0,.149.187,2.967,2.967,0,0,0,.491.134,4.794,4.794,0,0,1,.744.205,1.29,1.29,0,0,1,.526.377,1.059,1.059,0,0,1,.223.713,1.29,1.29,0,0,1-.2.71,1.394,1.394,0,0,1-.609.5,2.332,2.332,0,0,1-.984.187A3.769,3.769,0,0,1,377.426,414.476Z" transform="translate(-364.745 -410.245)" fill="#fff"/>
    <path id="Path_6981" data-name="Path 6981" d="M387.452,410.406v4.156h-1.3v-1.532h-1.2v1.532h-1.3v-4.156h1.3v1.473h1.2v-1.473Z" transform="translate(-367.607 -410.311)" fill="#fff"/>
    <path id="Path_6982" data-name="Path 6982" d="M395.2,412.787a1.05,1.05,0,0,1,.187.629.98.98,0,0,1-.419.846,2.069,2.069,0,0,1-1.213.3h-2.172v-4.156h2.061a1.923,1.923,0,0,1,1.166.3.94.94,0,0,1,.394.79,1.018,1.018,0,0,1-.135.523,1,1,0,0,1-.4.374A1.162,1.162,0,0,1,395.2,412.787Zm-2.338-1.4V412h.607q.424,0,.424-.309t-.424-.309Zm1.213,1.871q0-.327-.43-.327h-.783v.654h.783Q394.072,413.583,394.073,413.256Z" transform="translate(-370.865 -410.311)" fill="#fff"/>
    <path id="Path_6983" data-name="Path 6983" d="M401.56,413.838h-1.467l-.259.724h-1.323l1.687-4.156h1.279l1.687,4.156h-1.345Zm-.358-1.01-.375-1.045-.375,1.045Z" transform="translate(-373.712 -410.311)" fill="#fff"/>
    <path id="Path_6984" data-name="Path 6984" d="M407.865,414.315a1.979,1.979,0,0,1-.768-.772,2.411,2.411,0,0,1,0-2.251,1.983,1.983,0,0,1,.768-.772,2.211,2.211,0,0,1,1.1-.276,2.279,2.279,0,0,1,1,.213,1.9,1.9,0,0,1,.727.618l-.821.79a1.036,1.036,0,0,0-.843-.487.832.832,0,0,0-.656.282,1.279,1.279,0,0,0,0,1.514.83.83,0,0,0,.656.282,1.035,1.035,0,0,0,.843-.487l.821.79a1.893,1.893,0,0,1-.727.618,2.271,2.271,0,0,1-1,.214A2.212,2.212,0,0,1,407.865,414.315Z" transform="translate(-377.123 -410.245)" fill="#fff"/>
    <path id="Path_6985" data-name="Path 6985" d="M416.022,413.185l-.292.35v1.027h-1.279v-4.156h1.279v1.508L417,410.406h1.417l-1.543,1.829,1.621,2.328h-1.505Z" transform="translate(-380.258 -410.311)" fill="#fff"/>
  </g>
</svg>
