<svg id="icon6" xmlns="http://www.w3.org/2000/svg" width="41.263" height="46.024" viewBox="0 0 41.263 46.024">

<style type="text/css">
	.st5{fill-rule:evenodd;clip-rule:evenodd;fill:#fff;}

  #icon6:hover .st5{
    cursor:pointer !important;
    fill:#FFFF00 !important;}
    #icon6:hover .st6{
      cursor:pointer;
      fill: #A83E1E;
    }
</style>
  <g id="user_icon"  class="st5" transform="translate(-358 -354)">
    <g id="man" class="st5"  transform="translate(358 358.761)">
      <g id="Group_41" class="st5"  data-name="Group 41" transform="translate(33.97 27.818)">
        <g id="Group_40" class="st5"  data-name="Group 40">
          <path id="Path_35" class="st5" data-name="Path 35" d="M422.943,345.46l-.058-.059a.806.806,0,1,0-1.142,1.137l.048.049a.806.806,0,1,0,1.152-1.127Z" transform="translate(-421.507 -345.164)" fill="#fff"/>
        </g>
      </g>
      <g id="Group_43" class="st5" data-name="Group 43">
        <g id="Group_42"  class="st5" data-name="Group 42">
          <path id="Path_36" class="st5" data-name="Path 36" d="M40.457,39.651H38.2V34.968a9.838,9.838,0,0,0-1.055-4.424.806.806,0,0,0-1.438.728,8.22,8.22,0,0,1,.881,3.7v4.684H4.674V34.963a8.238,8.238,0,0,1,6.434-8l2.756-.6a4.643,4.643,0,0,0,1.453-.591,8.134,8.134,0,0,0,10.613.014,4.642,4.642,0,0,0,1.43.576l2.79.61a8.194,8.194,0,0,1,1.976.706.806.806,0,1,0,.733-1.436,9.808,9.808,0,0,0-2.364-.845l-2.79-.61a3.112,3.112,0,0,1-2.433-3.022v-.311a7.084,7.084,0,0,0,3.481-4.963h.378a2.3,2.3,0,0,0,2.3-2.3V12.663a2.3,2.3,0,0,0-2.3-2.3h-.279v-3.3A7.073,7.073,0,0,0,21.787,0h-2.31a7.073,7.073,0,0,0-7.065,7.065v3.3h-.279a2.3,2.3,0,0,0-2.3,2.3v1.525a2.3,2.3,0,0,0,2.3,2.3h.378a7.084,7.084,0,0,0,3.438,4.939v.337a3.112,3.112,0,0,1-2.43,3.021l-2.756.6a9.8,9.8,0,0,0-7.7,9.572v4.689H.806a.806.806,0,1,0,0,1.612H40.457a.806.806,0,1,0,0-1.612ZM28.852,11.975h.279a.689.689,0,0,1,.688.688v1.525a.689.689,0,0,1-.688.688h-.279Zm-16.441,2.9h-.279a.689.689,0,0,1-.688-.688V12.663a.689.689,0,0,1,.688-.688h.279Zm8.22,11.257a6.47,6.47,0,0,1-4.1-1.449,4.709,4.709,0,0,0,1.013-2.58,7.052,7.052,0,0,0,1.929.268h2.31a7.05,7.05,0,0,0,1.888-.256A4.712,4.712,0,0,0,24.7,24.7,6.47,6.47,0,0,1,20.632,26.133ZM14.023,7.065a5.46,5.46,0,0,1,5.453-5.453h2.31a5.462,5.462,0,0,1,5.391,4.627A.8.8,0,0,0,27,6.372a13.537,13.537,0,0,1-9.635,3.991H14.023Zm0,8.242V11.975h3.343a15.163,15.163,0,0,0,5.831-1.16A15.153,15.153,0,0,0,27.24,8.342v6.965a5.46,5.46,0,0,1-5.453,5.453h-2.31A5.46,5.46,0,0,1,14.023,15.307Z" fill="#fff"/>
        </g>
      </g>
      <g id="Group_45" class="st5" data-name="Group 45" transform="translate(6.461 29.649)">
        <g id="Group_44" class="st5" data-name="Group 44">
          <path id="Path_37" class="st5" data-name="Path 37" d="M83.792,368.194a.806.806,0,0,0-1.132-.132,6.519,6.519,0,0,0-2.488,5.14.806.806,0,0,0,1.612,0,4.916,4.916,0,0,1,1.876-3.876A.806.806,0,0,0,83.792,368.194Z" transform="translate(-80.172 -367.889)" fill="#fff"/>
        </g>
      </g>
      <g id="Group_47"  class="st5" data-name="Group 47" transform="translate(10.94 28.544)">
        <g id="Group_46" class="st5"  data-name="Group 46">
          <path id="Path_38" class="st5"  data-name="Path 38" d="M137.369,354.81a.806.806,0,0,0-.961-.613l-.037.008a.806.806,0,1,0,.35,1.573l.035-.008A.806.806,0,0,0,137.369,354.81Z" transform="translate(-135.74 -354.178)" fill="#fff"/>
        </g>
      </g>
    </g>
    <path id="Exclusion_1" class="st6" data-name="Exclusion 1" d="M4.5,9A4.5,4.5,0,1,1,9,4.5,4.5,4.5,0,0,1,4.5,9Zm0-7.135a.365.365,0,0,0-.308.562A1.681,1.681,0,0,0,2.815,4.079V5.221a.514.514,0,0,1-.168.382.455.455,0,0,0,.308.79h.917a.637.637,0,0,0,.625.534.63.63,0,0,0,.626-.534h.917a.455.455,0,0,0,.307-.79.516.516,0,0,1-.168-.382V4.236a.1.1,0,0,0-.1-.1.1.1,0,0,0-.1.1v.985a.72.72,0,0,0,.233.527.256.256,0,0,1-.173.446H2.954a.258.258,0,0,1-.174-.446.713.713,0,0,0,.233-.527V4.079a1.485,1.485,0,0,1,2.13-1.335A.732.732,0,1,0,5.765,2.4a.727.727,0,0,0-.492.19A1.631,1.631,0,0,0,4.8,2.427a.36.36,0,0,0,.058-.2A.366.366,0,0,0,4.5,1.865Zm0,1.008a1.206,1.206,0,0,0-1.11.734.1.1,0,0,0,.053.13.1.1,0,0,0,.038.008.1.1,0,0,0,.091-.061A1.007,1.007,0,0,1,4.5,3.072a.1.1,0,0,0,.1-.1A.1.1,0,0,0,4.5,2.873Zm0,3.857a.437.437,0,0,1-.423-.337H4.92A.433.433,0,0,1,4.5,6.73ZM5.765,3.665A.534.534,0,1,1,6.3,3.131.534.534,0,0,1,5.765,3.665Zm-.1-.552h0v.177a.1.1,0,1,0,.2,0V2.9A.1.1,0,0,0,5.8,2.809.1.1,0,0,0,5.762,2.8a.1.1,0,0,0-.07.029l-.114.114a.1.1,0,0,0,0,.14.1.1,0,0,0,.069.029h.015ZM4.5,2.4a.169.169,0,1,1,.169-.168A.168.168,0,0,1,4.5,2.4Z" transform="translate(382.263 354)" fill="#fff"/>
  </g>
  <defs>
	<script>
		document.querySelector('#icon6').addEventListener("click", function(){
			
			console.log('clicked on te SVG!', this.id);
			
		})
		
	</script>
</defs>
</svg>
