<svg  id="icon1" xmlns="http://www.w3.org/2000/svg" width="29.206" height="33.187" viewBox="0 0 29.206 33.187">
<style type="text/css">
	.st0{fill-rule:evenodd;clip-rule:evenodd;fill:#fff;}

  #icon1:hover .st0{
    cursor:pointer !important;
    fill:#FFFF00 !important;}
</style>
  <g id="video" class="st0" transform="translate(0)">
    <path id="Path_8" class="st0" data-name="Path 8" d="M28.558,13.4H6.444L27.685,7.243a.648.648,0,0,0,.442-.8L27.016,2.6A3.629,3.629,0,0,0,23.546,0a3.591,3.591,0,0,0-1,.142L2.6,5.919A3.616,3.616,0,0,0,.143,10.388l1.086,3.749V29.58a3.611,3.611,0,0,0,3.607,3.607h7.789a.648.648,0,0,0,0-1.3H4.836A2.313,2.313,0,0,1,2.526,29.58V20.759H27.91V29.58A2.313,2.313,0,0,1,25.6,31.891H17.81a.648.648,0,0,0,0,1.3H25.6a3.611,3.611,0,0,0,3.607-3.607V14.045A.648.648,0,0,0,28.558,13.4Zm-11.43,6.066,2.754-4.77h3.582l-2.754,4.77Zm-5.079,0,2.754-4.77h3.582l-2.754,4.77Zm-5.079,0,2.754-4.77h3.582l-2.754,4.77Zm2.41-8.391L4.769,6.642l3.455-1a.643.643,0,0,0,.085.1l4.612,4.429-3.455,1A.645.645,0,0,0,9.381,11.071Zm8.686-8.157,4.612,4.429-3.455,1a.632.632,0,0,0-.085-.1L14.526,3.815l3.455-1A.643.643,0,0,0,18.066,2.915ZM13.188,4.328,17.8,8.757l-3.455,1a.632.632,0,0,0-.085-.1L9.647,5.229l3.455-1A.685.685,0,0,0,13.188,4.328Zm9.72-2.941a2.292,2.292,0,0,1,.638-.091,2.326,2.326,0,0,1,2.225,1.668L26.7,6.178l-2.6.753a.659.659,0,0,0-.085-.1L19.4,2.4ZM1.587,8.271A2.294,2.294,0,0,1,2.965,7.164l.381-.11a.659.659,0,0,0,.085.1l4.612,4.429L2.32,13.241l-.931-3.214A2.3,2.3,0,0,1,1.587,8.271Zm.939,6.422h5.7l-2.754,4.77H2.526Zm19.682,4.77,2.754-4.77H27.91v4.77Zm0,0" fill="#a3a81e" fill-rule="evenodd"/>
    <path id="Path_9" class="st0" data-name="Path 9" d="M203.057,348.327a.648.648,0,0,0-.324-.561l-5.695-3.288a.648.648,0,0,0-.972.561v6.576a.648.648,0,0,0,.972.561l5.695-3.288A.648.648,0,0,0,203.057,348.327Zm-5.695,2.165v-4.33l3.75,2.165Zm0,0" transform="translate(-183.358 -322.069)" fill="#a3a81e" fill-rule="evenodd"/>
    <path id="Path_10" class="st0" data-name="Path 10" d="M225.422,492a.648.648,0,1,0,.648.648A.649.649,0,0,0,225.422,492Zm0,0" transform="translate(-210.204 -460.109)" />
  </g>
  <defs>
	<script>
		document.querySelector('#video').addEventListener("click", function(){
			
			console.log('clicked on te SVG!', this.id);
			
		})
		
	</script>
</defs>

</svg>
