<svg id="icon5" xmlns="http://www.w3.org/2000/svg" width="34.029" height="34.024" viewBox="0 0 34.029 34.024">
<style type="text/css">
.st4{fill-rule:evenodd;clip-rule:evenodd;fill:#fff;}

  #icon5:hover .st4{
    cursor:pointer !important;
    fill:#FFFF00 !important;}
</style>
  <g id="search" class="st4" transform="translate(0 -0.033)">
    <g id="Group_31" class="st4"  data-name="Group 31" transform="translate(3.19 3.217)">
      <g id="Group_30" class="st4"  data-name="Group 30">
        <path id="Path_30" class="st4"  data-name="Path 30" d="M57.963,47.942a9.97,9.97,0,1,0,9.97,9.97A9.981,9.981,0,0,0,57.963,47.942Zm0,18.611A8.641,8.641,0,1,1,66.6,57.912,8.65,8.65,0,0,1,57.963,66.553Z" transform="translate(-47.993 -47.942)" fill="#fff"/>
      </g>
    </g>
    <g id="Group_33" class="st4"  data-name="Group 33" transform="translate(3.66 21.358)">
      <g id="Group_32" class="st4"  data-name="Group 32">
        <path id="Path_31" class="st4"  data-name="Path 31" d="M56.247,321.145l-.056-.056a.665.665,0,0,0-.94.94l.062.061a.665.665,0,0,0,.934-.945Z" transform="translate(-55.056 -320.895)" fill="#fff"/>
      </g>
    </g>
    <g id="Group_35" class="st4"  data-name="Group 35" transform="translate(0 0.033)">
      <g id="Group_34" class="st4"  data-name="Group 34" transform="translate(0 0)">
        <path id="Path_32" class="st4"  data-name="Path 32" d="M33.237,29.434l-9.055-9.055a13.16,13.16,0,1,0-22.134-.135A.665.665,0,0,0,3.17,19.53a11.832,11.832,0,1,1,3.427,3.5.665.665,0,0,0-.739,1.105,13.188,13.188,0,0,0,14.492.069L22.544,26.4h0l6.863,6.862a2.708,2.708,0,0,0,3.83-3.83Zm-11.8-6.017a13.146,13.146,0,0,0,1.951-1.95l1.575,1.575-.012.011-1.939,1.939ZM32.3,32.324a1.379,1.379,0,0,1-1.95,0l-6.393-6.393,1.939-1.939.011-.012L32.3,30.374A1.381,1.381,0,0,1,32.3,32.324Z" transform="translate(0 -0.033)" fill="#fff"/>
      </g>
    </g>
    <g id="Group_37" class="st4"  data-name="Group 37" transform="translate(14.805 6.931)">
      <g id="Group_36" class="st4"  data-name="Group 36">
        <path id="Path_33" class="st4"  data-name="Path 33" d="M223.674,103.867a.665.665,0,1,0-.508,1.228,5.37,5.37,0,0,1,3.328,4.977.665.665,0,0,0,1.329,0A6.7,6.7,0,0,0,223.674,103.867Z" transform="translate(-222.755 -103.817)" fill="#fff"/>
      </g>
    </g>
    <g id="Group_39" class="st4"  data-name="Group 39" transform="translate(12.495 6.474)">
      <g id="Group_38"  class="st4" data-name="Group 38">
        <path id="Path_34" class="st4"  data-name="Path 34" d="M188.756,96.945h-.093a.665.665,0,1,0,0,1.329h.083a.665.665,0,0,0,.009-1.329Z" transform="translate(-187.999 -96.944)" fill="#fff"/>
      </g>
    </g>
  </g>

  <defs>
	<script>
		document.querySelector('#icon5').addEventListener("click", function(){
			
			console.log('clicked on te SVG!', this.id);
			
		})
		
	</script>
</defs>
</svg>
