<svg  id="icon4" xmlns="http://www.w3.org/2000/svg" width="33.663" height="33.663" viewBox="0 0 33.663 33.663">

<style type="text/css">
	.st3{fill-rule:evenodd;clip-rule:evenodd;fill:#fff;}

  #icon4:hover .st3{
    cursor:pointer !important;
    fill:#FFFF00 !important;
    stroke:#fff000 !important;}
</style>
  <g id="watchlist" class="st3" data-name="Group 48" transform="translate(-627 -147)">
    <g id="favorite" class="st3" transform="translate(627 147)">
      <path id="Path_40" class="st3" data-name="Path 40" d="M16.828,33.663q-.644,0-1.29-.05a16.828,16.828,0,1,1,14.974-6.971.657.657,0,1,1-1.068-.768,15.517,15.517,0,1,0-3.569,3.569.657.657,0,1,1,.767,1.068A16.827,16.827,0,0,1,16.828,33.663Zm0,0" transform="translate(0 0)" fill="#fff"/>
      <path id="Path_41"  class="st3" data-name="Path 41" d="M420.611,421.268a.658.658,0,1,1,.465-.193A.661.661,0,0,1,420.611,421.268Zm0,0" transform="translate(-392.342 -392.342)" fill="#fff"/>
      <line id="Line_8" class="st3" data-name="Line 8" y2="18" transform="translate(16.5 7.5)" fill="none" stroke="#fff" stroke-linecap="round" stroke-width="2"/>
      <line id="Line_9"  class="st3" data-name="Line 9" y2="18" transform="translate(25.253 16.339) rotate(90)" fill="none" stroke="#fff" stroke-linecap="round" stroke-width="2"/>
    </g>
  </g>
  <defs>
	<script>
		document.querySelector('#icon4').addEventListener("click", function(){
			
			console.log('clicked on te SVG!', this.id);
			
		})
		
	</script>
</defs>
</svg>
