<svg id="twitter" xmlns="http://www.w3.org/2000/svg" width="46.402" height="46.402" viewBox="0 0 46.402 46.402">
<style type="text/css">
	.st10{fill-rule:evenodd;clip-rule:evenodd;fill:#fff;}

  #twitter:hover .st10{
    cursor:pointer !important;
    fill:#FFFF00 !important;}
</style>
  <path id="Path_63" class="st10" data-name="Path 63" d="M14.865,39A14.846,14.846,0,0,1,2.7,38.565a11.747,11.747,0,0,0,6.469-2.422.558.558,0,0,0-.346-.979A4.9,4.9,0,0,1,5.06,33.406a5.39,5.39,0,0,1-.641-.968,8.782,8.782,0,0,0,1.794-.191.558.558,0,0,0,0-1.085A4.829,4.829,0,0,1,2.23,27.077a5.606,5.606,0,0,0,1.862.342.558.558,0,0,0,.331-1,4.978,4.978,0,0,1-1.87-6,17.5,17.5,0,0,0,1.27,1.209.558.558,0,1,0,.729-.844,15.291,15.291,0,0,1-1.717-1.723.558.558,0,0,0-.9.066A6.626,6.626,0,0,0,1.1,21.866,5.782,5.782,0,0,0,2.34,25.917a3.59,3.59,0,0,1-.418-.222.558.558,0,0,0-.85.429,6.1,6.1,0,0,0,.467,2.585,5.638,5.638,0,0,0,2.148,2.581l-.058-.006a.558.558,0,0,0-.6.7,6.182,6.182,0,0,0,1.14,2.1,5.885,5.885,0,0,0,3.112,1.987A11.509,11.509,0,0,1,.61,37.43a.558.558,0,0,0-.358,1.021,16.389,16.389,0,0,0,9.024,2.76,15.987,15.987,0,0,0,6.007-1.18A.558.558,0,0,0,14.865,39Zm0,0" transform="translate(9.375 -6.751)" fill="#fff"/>
  <path id="Path_64"  class="st10" data-name="Path 64" d="M152.28,3.322a.558.558,0,0,0-.636-.133c-.324.143-.639.26-.936.357a3.813,3.813,0,0,0,1-2.093A.558.558,0,0,0,150.83.97a8.4,8.4,0,0,1-3.119,1.249A6.1,6.1,0,0,0,143.44.5a6.167,6.167,0,0,0-6.125,6.871A11.585,11.585,0,0,1,132,5.889a.558.558,0,1,0-.517.989,11.988,11.988,0,0,0,6.544,1.564.558.558,0,0,0,.483-.675,5.053,5.053,0,0,1,4.929-6.151A5,5,0,0,1,147.1,3.189a.557.557,0,0,0,.45.172,8.816,8.816,0,0,0,2.39-.65,6.8,6.8,0,0,1-1.477,1.369.558.558,0,0,0,.364,1.012,9.5,9.5,0,0,0,1.534-.282A8.775,8.775,0,0,1,148.744,6.2a.558.558,0,0,0-.254.468A16.133,16.133,0,0,1,142.457,19.5a.558.558,0,0,0,.689.877,16.78,16.78,0,0,0,4.675-5.79A17.8,17.8,0,0,0,149.6,6.962a9.6,9.6,0,0,0,2.756-3A.558.558,0,0,0,152.28,3.322Zm0,0" transform="translate(-114.494 10.588)" fill="#fff"/>
  <path id="Path_65"  class="st10" data-name="Path 65" d="M296.554,361.578h0a.558.558,0,1,0,.756.227A.558.558,0,0,0,296.553,361.578Zm0,0" transform="translate(-270.36 -330.286)" fill="#fff"/>
  <path id="Path_66"  class="st10" data-name="Path 66" d="M97.076,76.313a.558.558,0,0,0,.635-.917h0a.558.558,0,1,0-.634.918Zm0,0" transform="translate(-82.059 -60.036)" fill="#fff"/>
  <path id="Path_68"  class="st10" data-name="Path 68" d="M34.62,0H21.388a.906.906,0,0,0,0,1.813H34.62a9.98,9.98,0,0,1,9.969,9.969V34.62a9.98,9.98,0,0,1-9.969,9.969H11.782A9.98,9.98,0,0,1,1.813,34.62V11.782a9.98,9.98,0,0,1,9.969-9.969h2.356a.906.906,0,0,0,0-1.813H11.782A11.8,11.8,0,0,0,0,11.782V34.62A11.8,11.8,0,0,0,11.782,46.4H34.62A11.8,11.8,0,0,0,46.4,34.62V11.782A11.8,11.8,0,0,0,34.62,0Zm0,0" transform="translate(0 0)" fill="#fff"/>
  <path id="Path_67"  class="st10" data-name="Path 67" d="M186.907,1.813a.906.906,0,1,0,0-1.813h0a.906.906,0,0,0,0,1.813Zm0,0" transform="translate(-169.143 0)" fill="#fff"/>
  <defs>
	<script>
		document.querySelector('#twitter').addEventListener("click", function(){
			
			console.log('clicked on te SVG!', this.id);
			
		})
		
	</script>
</defs>
</svg>
