<svg id="youtube" xmlns="http://www.w3.org/2000/svg" width="58.071" height="41.364" viewBox="0 0 58.071 41.364">
<style type="text/css">
	.st8{fill-rule:evenodd;clip-rule:evenodd;fill:#fff;}

  #youtube:hover .st8{
    cursor:pointer !important;
    fill:#FFFF00 !important;}
</style>
  <path id="Path_47" class="st8" data-name="Path 47" d="M37.412,44.441c-2.665.09-5.482.136-8.376.136a150.685,150.685,0,0,1-19.8-1C4.929,42.9,3.217,40.894,2.7,35.9a110.934,110.934,0,0,1,0-19.478c.522-4.991,2.234-7,6.543-7.67.7-.109,1.521-.213,2.443-.309a1.134,1.134,0,1,0-.234-2.256c-.961.1-1.821.209-2.559.323A9.429,9.429,0,0,0,2.96,9.353c-1.4,1.561-2.2,3.734-2.522,6.836a113.64,113.64,0,0,0,0,19.95c.325,3.1,1.126,5.275,2.522,6.836a9.427,9.427,0,0,0,5.928,2.84,152.712,152.712,0,0,0,20.147,1.031c2.919,0,5.763-.046,8.453-.137a1.134,1.134,0,0,0-.077-2.268Zm0,0" transform="translate(0 -5.482)" fill="#fff"/>
  <path id="Path_48"  class="st8" data-name="Path 48" d="M209.96,10.707c-.325-3.1-1.126-5.275-2.521-6.836a9.429,9.429,0,0,0-5.928-2.84A152.722,152.722,0,0,0,181.363,0c-2.919,0-5.762.047-8.452.137a1.134,1.134,0,1,0,.077,2.268c2.664-.09,5.482-.136,8.376-.136a150.7,150.7,0,0,1,19.8,1c4.308.672,6.021,2.679,6.543,7.671a110.848,110.848,0,0,1,0,19.478c-.522,4.991-2.234,7-6.543,7.671-.7.109-1.522.213-2.444.308a1.134,1.134,0,0,0,.116,2.263c.039,0,.079,0,.119-.006.96-.1,1.821-.208,2.559-.323a9.431,9.431,0,0,0,5.928-2.84c1.4-1.562,2.2-3.734,2.521-6.836A113.643,113.643,0,0,0,209.96,10.707Zm0,0" transform="translate(-152.327)" fill="#fff"/>
  <path id="Path_49"  class="st8"  data-name="Path 49" d="M215.16,104.717l-14.038-8.674a1.134,1.134,0,0,0-1.731.965v17.347a1.134,1.134,0,0,0,1.731.965l14.038-8.673a1.134,1.134,0,0,0,0-1.93Zm-13.5,7.6V99.043l10.746,6.639Zm0,0" transform="translate(-176.776 -85)" fill="#fff"/>
  <path id="Path_50"   class="st8" data-name="Path 50" d="M132.982,5.3l.077,0a1.135,1.135,0,0,0-.151-2.264h0a1.134,1.134,0,0,0,.075,2.266Zm0,0" transform="translate(-116.894 -2.688)" fill="#fff"/>
  <path id="Path_51"  class="st8" data-name="Path 51" d="M361.2,341.664a1.134,1.134,0,0,0,.074,2.266l.077,0h0a1.134,1.134,0,0,0-.152-2.264Zm0,0" transform="translate(-319.297 -302.91)" fill="#fff"/>
<defs>
	<script>
		document.querySelector('#youtube').addEventListener("click", function(){
			
			console.log('clicked on te SVG!', this.id);
			
		})
		
	</script>
</defs>
</svg>
